<svg width="142" height="32" viewBox="0 0 142 32" fill="none" xmlns="http://www.w3.org/2000/svg">
<path d="M19.2495 7.91383C20.1759 5.99795 20.1222 3.62882 24.3067 1C26.8818 3.78971 28.1157 9.79825 26.0114 13.9082L26.6492 14.3108C26.9868 14.5239 27.049 14.9907 26.779 15.2848L26.0416 16.088L27.2404 18.2846C27.3463 18.4787 27.2286 18.72 27.0106 18.7574C25.9948 18.9314 23.4703 19.3916 21.7764 19.9352C19.7272 20.5929 16.6988 22.0772 16.6988 22.0772C16.6988 22.0772 13.6669 20.4156 11.5838 19.6993C9.96887 19.1441 7.57149 18.6919 6.50361 18.5052C6.26045 18.4627 6.15181 18.1729 6.30782 17.9816L7.79406 16.1593L6.92523 15.3808C6.60325 15.0923 6.65404 14.5741 7.0259 14.3536L7.40699 14.1277C6.76388 11.1931 5.47633 6.04285 9.76815 1.10726C12.1287 3.03858 13.725 4.86672 14.3819 7.97423C15.5082 7.66895 18.0874 7.25694 19.2495 7.91383Z" fill="#ED5F00" stroke="#ED5F00" stroke-width="0.32"/>
<ellipse cx="19.9759" cy="12.9291" rx="2.06019" ry="2.57983" fill="#FCFCFC"/>
<ellipse cx="19.2662" cy="13.2491" rx="0.939204" ry="1.08086" fill="#262626"/>
<ellipse cx="13.9384" cy="12.9291" rx="2.06019" ry="2.57983" fill="#FCFCFC"/>
<ellipse cx="14.6864" cy="13.3407" rx="1.03312" ry="1.18895" fill="#262626"/>
<path d="M15.8797 15.1557C16.4946 14.7772 17.2699 14.7758 17.8863 15.152L19.468 16.1175C19.8295 16.3382 20.2538 16.4331 20.6749 16.3875L25.3373 15.8829C26.3168 15.7768 27.2177 16.4295 27.4221 17.3933L27.6389 18.4151C27.712 18.7598 27.4927 19.0988 27.1483 19.1734L22.0171 20.2852C21.8604 20.3192 21.7085 20.3727 21.565 20.4444L17.406 22.5239C17.2298 22.612 17.0229 22.614 16.8449 22.5294L12.5049 20.4655C12.3313 20.383 12.1463 20.327 11.9561 20.2994L6.10315 19.4501C5.6804 19.3888 5.43526 18.9384 5.61325 18.5501L6.36116 16.9184C6.71121 16.1546 7.51713 15.7072 8.35044 15.8139L13.0247 16.4125C13.46 16.4683 13.9012 16.3732 14.2749 16.1432L15.8797 15.1557Z" fill="#FFE8D7"/>
<ellipse cx="16.9571" cy="14.8939" rx="0.448521" ry="0.615078" fill="#262626"/>
<path d="M13.5471 17.6265C15.0966 18.1673 17.2832 18.6074 18.6024 17.7902" stroke="black" stroke-width="0.32"/>
<path d="M0.743521 23.6964L16.0659 27.2934L18.2449 27.2456L32.8257 22.1736L29.5536 27.5177L17.1611 31.7272L4.02117 28.3833L0.743521 23.6964Z" fill="#FA934E"/>
<path d="M3.21399 21.2937C3.21399 21.2937 7.86775 22.0087 10.3403 22.6309C15.7195 23.9843 17.2118 25.0601 17.2118 25.0601C17.2118 25.0601 21.9223 22.8698 24.3608 22.0409C27.9524 20.8199 30.6598 20.9553 30.6598 20.9553L32.7939 22.2144L18.01 27.2812L16.1706 27.3853L0.574311 23.7303L3.21399 21.2937Z" fill="#FFE8D7"/>
<path d="M16.01 27.3884L18.2044 27.2589L17.4133 31.7417L16.8514 31.7525L16.01 27.3884Z" fill="#BD4B00"/>
<path d="M48.5385 20.4002C49.3225 20.4002 49.8745 20.2722 50.1945 20.0162C50.5145 19.7602 50.6745 19.4722 50.6745 19.1522C50.6745 18.8322 50.5465 18.5842 50.2905 18.4082C50.0345 18.2162 49.6745 18.0402 49.2105 17.8802L48.2025 17.5442C47.2745 17.2242 46.4505 16.8882 45.7305 16.5362C45.0265 16.1682 44.4745 15.6962 44.0745 15.1202C43.6745 14.5442 43.4745 13.7922 43.4745 12.8642C43.4745 11.5042 43.9945 10.4162 45.0345 9.60022C46.0905 8.78422 47.5625 8.37622 49.4505 8.37622C50.3785 8.37622 51.2025 8.46422 51.9225 8.64022C52.6425 8.81622 53.2105 9.08822 53.6265 9.45622C54.0425 9.80822 54.2505 10.2642 54.2505 10.8242C54.2505 11.2242 54.1545 11.5762 53.9625 11.8802C53.7705 12.1842 53.5385 12.4402 53.2665 12.6482C52.9145 12.4242 52.4425 12.2322 51.8505 12.0722C51.2585 11.8962 50.6105 11.8082 49.9065 11.8082C49.1865 11.8082 48.6585 11.9122 48.3225 12.1202C47.9865 12.3122 47.8185 12.5602 47.8185 12.8642C47.8185 13.1042 47.9225 13.3042 48.1305 13.4642C48.3545 13.6082 48.6665 13.7442 49.0665 13.8722L50.3385 14.2802C51.8585 14.7602 53.0185 15.3842 53.8185 16.1522C54.6185 16.9042 55.0185 17.9202 55.0185 19.2002C55.0185 20.5602 54.4745 21.6722 53.3865 22.5362C52.3145 23.3842 50.7465 23.8082 48.6825 23.8082C47.7065 23.8082 46.8265 23.7042 46.0425 23.4962C45.2585 23.2882 44.6345 22.9762 44.1705 22.5602C43.7065 22.1442 43.4745 21.6402 43.4745 21.0482C43.4745 20.5842 43.6105 20.1922 43.8825 19.8722C44.1545 19.5362 44.4505 19.2802 44.7705 19.1042C45.2185 19.4562 45.7625 19.7602 46.4025 20.0162C47.0585 20.2722 47.7705 20.4002 48.5385 20.4002ZM57.0173 17.0402H61.0493V19.3682C61.0493 19.7682 61.1773 20.0642 61.4333 20.2562C61.7053 20.4322 62.0813 20.5202 62.5613 20.5202C62.8013 20.5202 63.0493 20.5042 63.3053 20.4722C63.5613 20.4242 63.7853 20.3682 63.9773 20.3042C64.1213 20.4642 64.2413 20.6562 64.3373 20.8802C64.4493 21.1042 64.5053 21.3682 64.5053 21.6722C64.5053 22.2642 64.2733 22.7602 63.8093 23.1602C63.3613 23.5442 62.5613 23.7362 61.4093 23.7362C60.0013 23.7362 58.9133 23.4162 58.1453 22.7762C57.3933 22.1362 57.0173 21.0962 57.0173 19.6562V17.0402ZM59.6573 15.0962V11.9762H64.1933C64.2893 12.1362 64.3773 12.3522 64.4573 12.6242C64.5533 12.8962 64.6013 13.1922 64.6013 13.5122C64.6013 14.0722 64.4733 14.4802 64.2173 14.7362C63.9773 14.9762 63.6493 15.0962 63.2333 15.0962H59.6573ZM61.0493 17.6162H57.0173V9.00022C57.1933 8.95222 57.4413 8.90422 57.7613 8.85622C58.0973 8.79222 58.4493 8.76022 58.8173 8.76022C59.6013 8.76022 60.1693 8.89622 60.5213 9.16822C60.8733 9.44022 61.0493 9.94422 61.0493 10.6802V17.6162ZM78.4746 17.5442C78.4746 18.8242 78.2106 19.9282 77.6826 20.8562C77.1706 21.7842 76.4426 22.5042 75.4986 23.0162C74.5706 23.5122 73.4666 23.7602 72.1866 23.7602C70.9226 23.7602 69.8186 23.5122 68.8746 23.0162C67.9306 22.5202 67.1946 21.8082 66.6666 20.8802C66.1546 19.9522 65.8986 18.8402 65.8986 17.5442C65.8986 16.2802 66.1626 15.1842 66.6906 14.2562C67.2186 13.3282 67.9546 12.6162 68.8986 12.1202C69.8426 11.6082 70.9386 11.3522 72.1866 11.3522C73.4506 11.3522 74.5466 11.6082 75.4746 12.1202C76.4186 12.6322 77.1546 13.3522 77.6826 14.2802C78.2106 15.2082 78.4746 16.2962 78.4746 17.5442ZM72.1866 14.5442C71.5306 14.5442 71.0106 14.8082 70.6266 15.3362C70.2586 15.8482 70.0746 16.5842 70.0746 17.5442C70.0746 18.5362 70.2586 19.2882 70.6266 19.8002C70.9946 20.3122 71.5146 20.5682 72.1866 20.5682C72.8586 20.5682 73.3786 20.3122 73.7466 19.8002C74.1146 19.2722 74.2986 18.5202 74.2986 17.5442C74.2986 16.6002 74.1066 15.8642 73.7226 15.3362C73.3546 14.8082 72.8426 14.5442 72.1866 14.5442ZM84.5331 15.1442V17.8802H80.4531V14.5202C80.4531 14.0562 80.5731 13.6562 80.8131 13.3202C81.0691 12.9682 81.3971 12.6642 81.7971 12.4082C82.3571 12.0722 83.0131 11.8162 83.7651 11.6402C84.5171 11.4642 85.2931 11.3762 86.0931 11.3762C87.8371 11.3762 88.7091 11.9922 88.7091 13.2242C88.7091 13.5122 88.6691 13.7842 88.5891 14.0402C88.5091 14.2802 88.4131 14.4882 88.3011 14.6642C88.1411 14.6322 87.9491 14.6082 87.7251 14.5922C87.5011 14.5762 87.2531 14.5682 86.9811 14.5682C86.5811 14.5682 86.1571 14.6162 85.7091 14.7122C85.2611 14.8082 84.8691 14.9522 84.5331 15.1442ZM80.4531 17.0402H84.5331V23.3522C84.3571 23.4002 84.1011 23.4482 83.7651 23.4962C83.4451 23.5442 83.0931 23.5682 82.7091 23.5682C81.9251 23.5682 81.3491 23.4322 80.9811 23.1602C80.6291 22.8882 80.4531 22.3842 80.4531 21.6482V17.0402ZM92.5073 20.4002C92.2673 19.8562 92.0113 19.2322 91.7393 18.5282C91.4673 17.8082 91.1793 16.9522 90.8753 15.9602C90.5873 14.9522 90.2673 13.7362 89.9153 12.3122C90.1393 12.0882 90.4353 11.8962 90.8033 11.7362C91.1873 11.5602 91.6033 11.4722 92.0513 11.4722C92.6113 11.4722 93.0753 11.5922 93.4433 11.8322C93.8113 12.0562 94.0833 12.4882 94.2593 13.1282C94.5793 14.2482 94.8993 15.3602 95.2193 16.4642C95.5393 17.5522 95.8513 18.6402 96.1553 19.7282H96.2513C96.5073 18.9922 96.7553 18.1842 96.9953 17.3042C97.2513 16.4242 97.4833 15.5282 97.6913 14.6162C97.9153 13.6882 98.0993 12.7922 98.2433 11.9282C98.5153 11.7842 98.7953 11.6722 99.0833 11.5922C99.3713 11.5122 99.6753 11.4722 99.9953 11.4722C100.555 11.4722 101.043 11.5922 101.459 11.8322C101.875 12.0722 102.083 12.4882 102.083 13.0802C102.083 13.5922 102.019 14.1842 101.891 14.8562C101.763 15.5282 101.587 16.2402 101.363 16.9922C101.139 17.7442 100.883 18.5042 100.595 19.2722C100.307 20.0242 100.003 20.7522 99.6833 21.4562C99.3633 22.1442 99.0433 22.7682 98.7233 23.3282C97.8273 24.8802 96.9953 26.0322 96.2273 26.7842C95.4593 27.5362 94.6833 27.9122 93.8993 27.9122C93.2593 27.9122 92.7233 27.7122 92.2913 27.3122C91.8593 26.9122 91.6033 26.3922 91.5233 25.7522C91.8593 25.4642 92.1953 25.1522 92.5313 24.8162C92.8833 24.4802 93.2193 24.1202 93.5393 23.7362C93.8593 23.3682 94.1473 23.0002 94.4033 22.6322C94.1313 22.5522 93.8353 22.3682 93.5153 22.0802C93.2113 21.7762 92.8753 21.2162 92.5073 20.4002Z" fill="#6F6F6F"/>
<path d="M108.354 17.3762H104.202V11.0642C104.202 10.3762 104.402 9.83222 104.802 9.43222C105.202 9.03222 105.746 8.83222 106.434 8.83222C106.818 8.83222 107.186 8.85622 107.538 8.90422C107.906 8.95222 108.178 9.00022 108.354 9.04822V17.3762ZM106.386 18.2162V14.9042H113.61C113.722 15.0802 113.826 15.3122 113.922 15.6002C114.018 15.8722 114.066 16.1762 114.066 16.5122C114.066 17.1042 113.93 17.5362 113.658 17.8082C113.402 18.0802 113.05 18.2162 112.602 18.2162H106.386ZM106.434 12.1922V8.83222H114.426C114.538 9.00822 114.634 9.24022 114.714 9.52822C114.81 9.81622 114.858 10.1282 114.858 10.4642C114.858 11.0562 114.722 11.4962 114.45 11.7842C114.194 12.0562 113.842 12.1922 113.394 12.1922H106.434ZM104.202 16.3442H108.402V23.3522C108.226 23.4002 107.954 23.4482 107.586 23.4962C107.218 23.5442 106.842 23.5682 106.458 23.5682C105.626 23.5682 105.042 23.4242 104.706 23.1362C104.37 22.8322 104.202 22.3122 104.202 21.5762V16.3442ZM128.161 17.5442C128.161 18.8242 127.897 19.9282 127.369 20.8562C126.857 21.7842 126.129 22.5042 125.185 23.0162C124.257 23.5122 123.153 23.7602 121.873 23.7602C120.609 23.7602 119.505 23.5122 118.561 23.0162C117.617 22.5202 116.881 21.8082 116.353 20.8802C115.841 19.9522 115.585 18.8402 115.585 17.5442C115.585 16.2802 115.849 15.1842 116.377 14.2562C116.905 13.3282 117.641 12.6162 118.585 12.1202C119.529 11.6082 120.625 11.3522 121.873 11.3522C123.137 11.3522 124.233 11.6082 125.161 12.1202C126.105 12.6322 126.841 13.3522 127.369 14.2802C127.897 15.2082 128.161 16.2962 128.161 17.5442ZM121.873 14.5442C121.217 14.5442 120.697 14.8082 120.313 15.3362C119.945 15.8482 119.761 16.5842 119.761 17.5442C119.761 18.5362 119.945 19.2882 120.313 19.8002C120.681 20.3122 121.201 20.5682 121.873 20.5682C122.545 20.5682 123.065 20.3122 123.433 19.8002C123.801 19.2722 123.985 18.5202 123.985 17.5442C123.985 16.6002 123.793 15.8642 123.409 15.3362C123.041 14.8082 122.529 14.5442 121.873 14.5442ZM133.838 15.9362L134.582 15.9122C135.126 15.1762 135.662 14.4562 136.19 13.7522C136.734 13.0322 137.278 12.3042 137.822 11.5682C137.902 11.5522 137.974 11.5442 138.038 11.5442C138.102 11.5442 138.166 11.5442 138.23 11.5442C138.982 11.5442 139.574 11.7042 140.006 12.0242C140.454 12.3442 140.678 12.7602 140.678 13.2722C140.678 13.6882 140.574 14.0562 140.366 14.3762C140.174 14.6962 139.814 15.1522 139.286 15.7442C138.886 16.1922 138.486 16.6402 138.086 17.0882C137.686 17.5202 137.286 17.9602 136.886 18.4082L135.686 18.9122C135.142 19.6962 134.598 20.4722 134.054 21.2402C133.526 22.0082 132.99 22.7842 132.446 23.5682C132.382 23.5682 132.294 23.5682 132.182 23.5682C132.086 23.5842 132.006 23.5922 131.942 23.5922C131.142 23.5922 130.526 23.4242 130.094 23.0882C129.662 22.7522 129.446 22.3362 129.446 21.8402C129.446 21.4562 129.534 21.1202 129.71 20.8322C129.902 20.5282 130.222 20.1202 130.67 19.6082C131.198 19.0002 131.726 18.3922 132.254 17.7842C132.782 17.1602 133.31 16.5442 133.838 15.9362ZM136.214 16.2962L137.15 16.7762C137.758 17.5922 138.374 18.4082 138.998 19.2242C139.622 20.0402 140.238 20.8562 140.846 21.6722C140.766 22.2802 140.526 22.7602 140.126 23.1122C139.726 23.4642 139.246 23.6402 138.686 23.6402C138.094 23.6242 137.614 23.4482 137.246 23.1122C136.878 22.7762 136.526 22.3682 136.19 21.8882C135.806 21.3442 135.422 20.8002 135.038 20.2562C134.67 19.7122 134.294 19.1682 133.91 18.6242L133.31 18.2402C132.654 17.4722 131.998 16.7042 131.342 15.9362C130.686 15.1522 130.03 14.3762 129.374 13.6082C129.502 13.0002 129.758 12.5042 130.142 12.1202C130.526 11.7362 130.99 11.5442 131.534 11.5442C132.062 11.5442 132.47 11.6722 132.758 11.9282C133.046 12.1842 133.366 12.5442 133.718 13.0082C134.134 13.5522 134.55 14.0962 134.966 14.6402C135.382 15.1842 135.798 15.7362 136.214 16.2962Z" fill="#F76808"/>
</svg>
